/* XPM */
static char * coin_3_xpm[] = {
"32 32 24 1",
" 	c #C8B299",
".	c #DEC7B3",
"+	c #87745C",
"@	c #81755F",
"#	c #B19C87",
"$	c #4E3D29",
"%	c #DCC5B1",
"&	c #523A26",
"*	c #E7EB0B",
"=	c #1C1C1C",
"-	c #40875B",
";	c #3E9B4B",
">	c #979797",
",	c #797979",
"'	c #86765E",
")	c #5B4B35",
"!	c #C7B39A",
"~	c #857362",
"{	c #FCBD07",
"]	c #86735E",
"^	c #4C3C29",
"/	c #5A4934",
"(	c #85745D",
"_	c #584934",
" ..............+ ..............@",
".##############$%##############&",
".##############$%##############&",
".##############$%##############&",
".##############$%##############&",
".##############$%##############&",
".#****************************#&",
".*============================*&",
".*=------------;;------------=*&",
".*=;;;;;;;;;;;;;;;;;;;;;;----=*&",
".*=;;;;;;;;;;;;;;;;;;;;;;;---=*&",
".*===;====;====;;====;====-===*&",
".#**=;=>,=;=>,=;;=>,=;=>,=-=**#&",
".*===;=>,=;=>,=;;=>,=;=>,=-===*&",
".*=;;;=>,=;=>,=;;=>,=;=>,=---=*&",
"'*===;=>,=;=>,=;;=>,=;=>,=-===*)",
"!%**=;=,,=;=,,=;;=,,=;=,,=-=**%~",
".*===;====;====;;====;====-===*&",
".*=;;;;;;;;;;;;;;;;;;;;;;;---=*&",
".*=;;;;;;;;;;;;;;;;;;;;;;;---=*&",
".*=;;=;;;;;;;;;;;;;;;;;;;;=--=*&",
".*=;;;;==================;---=*&",
".*=;;;;={={=**={={={={={=;---=*&",
".*=;;;;={={=**={={={={={=;---=*&",
".*==========**================*&",
".#**********##****************#&",
".##############$%##############&",
".##############$%##############&",
".##############$%##############&",
".##############$%##############&",
".##############$%##############&",
"]^^^^^^^^^^^^^^/(^^^^^^^^^^^^^^_"};
