/* XPM */
static char * enemydown_xpm[] = {
"32 32 26 1",
" 	c #C8B299",
".	c #DEC7B3",
"+	c #87745C",
"@	c #81755F",
"#	c #B19C87",
"$	c #4E3D29",
"%	c #DCC5B1",
"&	c #523A26",
"*	c #EF0000",
"=	c #363636",
"-	c #666666",
";	c #FFD73A",
">	c #FFFFF3",
",	c #86765E",
"'	c #4D3C28",
")	c #5B4B35",
"!	c #C7B39A",
"~	c #857362",
"{	c #C2423D",
"]	c #FF6665",
"^	c #FFB1B2",
"/	c #86735E",
"(	c #4C3C29",
"_	c #5A4934",
":	c #85745D",
"<	c #584934",
" ..............+ ..............@",
".##############$%##############&",
".#*=*######**********######*=*#&",
".#*==*####*==========*####*==*#&",
".##*==**#*=----==----=*#**==*##&",
".###*===*=--;;-==;;;--=*===*###&",
".####**==--;;;-==;;;;--==**####&",
".######*=-;;>;-==;;;;;-=*######&",
".#####*=--;>;;-==;;;;;--=*#####&",
"*=*###*=-;;;;;-==;;;;;;-=*###*=*",
"*==****=-;;>;;-==;;;;;;-=****==*",
".*=====--;;>;;-==;;;;;;--=====*&",
".#*====-;;;>;;-==;;;;>;;-====*#&",
".##***=-;;;;;;-==;;;;>;;-=***##&",
".####*=-;;;;;;-==;;;;>;;-=*####&",
",''''*=--;;;;;-==;;;;;;--=*'''')",
"!%%%***=-;;;;;-==;;;;>;-=***%%%~",
".##*====-;;;;;-==;;;>;;-====*##&",
".##*====--;;;;-==;;;;;--====*##&",
".#*==***=----;---;;----=***==*#&",
".*==*###*===-;;;;;;-===*###*==*&",
".#######*={{========{{=*#######&",
".#######*=]{{{{{{{{{{]=*#######&",
".########*=]]]]]]]]]]=*########&",
".#########*=]]]]]]]^=*#########&",
".#########*==]]]]]^==*#########&",
".########*==*======*==*########&",
".#######*==*#******#*==*#######&",
".#######*=*####$%####*=*#######&",
".##############$%##############&",
".##############$%##############&",
"/((((((((((((((_:((((((((((((((<"};
