/* XPM */
static char * exitopen_xpm[] = {
"32 32 8 1",
" 	c #03ED20",
".	c #000000",
"+	c #0E0E0E",
"@	c #101010",
"#	c #0F0F0F",
"$	c #0D0D0D",
"%	c #010101",
"&	c #020202",
"                                ",
"                                ",
"                                ",
"                                ",
"                                ",
"        ...........             ",
"        ............            ",
"        .....     ..            ",
"        .....     ..            ",
"        +....     ..            ",
"        @....     ..            ",
"        #....     .. .          ",
"        +....     .. ..         ",
"        $....     .. .%.        ",
"        $....        ....       ",
"        $....        .....      ",
"        $...............&..     ",
"        $....        .....      ",
"        $....        ....       ",
"        $....     .. ...        ",
"        $....     .. ..         ",
"        $....     .. .          ",
"        $....     ..            ",
"        $....     ..            ",
"        $....     ..            ",
"        .....     ..            ",
"        ............            ",
"        ...........             ",
"                                ",
"                                ",
"                                ",
"                                "};
