/* XPM */
static char * Floor_xpm[] = {
"32 32 22 1",
" 	c #C8B299",
".	c #DEC7B3",
"+	c #87745C",
"@	c #81755F",
"#	c #B19C87",
"$	c #4E3D29",
"%	c #DCC5B1",
"&	c #523A26",
"*	c #86765E",
"=	c #4D3C28",
"-	c #5A4A33",
";	c #86735C",
">	c #5B4B35",
",	c #C7B39A",
"'	c #86745C",
")	c #C9B39A",
"!	c #857362",
"~	c #86735E",
"{	c #4C3C29",
"]	c #5A4934",
"^	c #85745D",
"/	c #584934",
" ..............+ ..............@",
".##############$%##############&",
".##############$%##############&",
".##############$%##############&",
".##############$%##############&",
".##############$%##############&",
".##############$%##############&",
".##############$%##############&",
".##############$%##############&",
".##############$%##############&",
".##############$%##############&",
".##############$%##############&",
".##############$%##############&",
".##############$%##############&",
".##############$%##############&",
"*==============-;==============>",
",%%%%%%%%%%%%%%')%%%%%%%%%%%%%%!",
".##############$%##############&",
".##############$%##############&",
".##############$%##############&",
".##############$%##############&",
".##############$%##############&",
".##############$%##############&",
".##############$%##############&",
".##############$%##############&",
".##############$%##############&",
".##############$%##############&",
".##############$%##############&",
".##############$%##############&",
".##############$%##############&",
".##############$%##############&",
"~{{{{{{{{{{{{{{]^{{{{{{{{{{{{{{/"};
