/* XPM */
static char * player_de_xpm[] = {
"32 32 20 1",
" 	c #E50000",
".	c #000000",
"+	c #E0E0E0",
"@	c #565972",
"#	c #46465E",
"$	c #716B6E",
"%	c #5D585F",
"&	c #0E0E0E",
"*	c #101010",
"=	c #555157",
"-	c #3A3A50",
";	c #C9A495",
">	c #FFCBB0",
",	c #F6AE9F",
"'	c #020202",
")	c #0D0D0D",
"!	c #6C6E85",
"~	c #E19B9B",
"{	c #C2B8D5",
"]	c #D8D0E0",
"                                ",
"                                ",
"                                ",
"                                ",
"                                ",
"        ...........             ",
"        ....++++++++            ",
"        ...+@@######+           ",
"        ..+@$$$$$$%%#+          ",
"        &+@$$$$$$$$%%#+         ",
"        *+#$$$$$$$$%%#+         ",
"        +#=%$$$$$$%%%=#+        ",
"        +-=%%%%%%%%%%=-+        ",
"        +-=%%%%%%%%%%=-+        ",
"        +-=%;>>>>>>;%=-+.       ",
"        +-=%>>>>>>>>%=-+..      ",
"        +#,;>>>>>>>>;,#+'..     ",
"        +#>>>->>>>->>>#+..      ",
"        )+#,>!~,,~!>,#+..       ",
"        )+#,,,,,,,,,,#+.        ",
"        +-@##########@#+        ",
"        +-!@-@{{{{@-@!#+        ",
"       +#>-!#!#]]#!#!#>#+       ",
"       +#>,-@######@-,>#+       ",
"        +#--!!!#{!!!--#+        ",
"        .++-@@----@@-++         ",
"        ..+---@##@---+          ",
"        ..+-!!-++-!!-+          ",
"           +--+  +--+           ",
"                                ",
"                                ",
"                                "};
