/* XPM */
static char * player_le_xpm[] = {
"32 32 22 1",
" 	c #E50000",
".	c #000000",
"+	c #E0E0E0",
"@	c #565972",
"#	c #46465E",
"$	c #716B6E",
"%	c #5D585F",
"&	c #0E0E0E",
"*	c #101010",
"=	c #0F0F0F",
"-	c #555157",
";	c #3A3A50",
">	c #0D0D0D",
",	c #A5948F",
"'	c #B59E95",
")	c #F6AE9F",
"!	c #FFCBB0",
"~	c #020202",
"{	c #E19B9B",
"]	c #6C6E85",
"^	c #C2B8D5",
"/	c #D8D0E0",
"                                ",
"                                ",
"                                ",
"                                ",
"                                ",
"        ...........             ",
"        .....+++++++            ",
"        ....+@@#####+           ",
"        ...+@$$$$$%%#+          ",
"        &.+@%%$$$$$%%#+         ",
"        *.+#%%%%$$$%%#+         ",
"        =+#%%%%%%$$%%-#+        ",
"        &+#%%%%%%%%%--;+        ",
"        >+#%%%%%%%%---;+        ",
"        >+#%%,'''%----;+.       ",
"        >+#)!!!!!-----;+..      ",
"        >+@!!!!!!,----#+~..     ",
"        >+#!;!!!!!)--#+...      ",
"        >+;{]!!!!))--;+..       ",
"        >.+;)))!))){;+..        ",
"        >..+###;;;;;+..         ",
"        >..+;^#@@;@;+.          ",
"        >..+;/#]];@;+           ",
"        >..+;#@!!#@;+           ",
"        >..+;]@!)#@;+           ",
"        ....+;;##;;+            ",
"        ....+;@@@@;+            ",
"        .....+;]]];+            ",
"              +;;;+             ",
"                                ",
"                                ",
"                                "};
