/* XPM */
static char * player_l_xpm[] = {
"32 32 33 1",
" 	c #C8B299",
".	c #DEC7B3",
"+	c #87745C",
"@	c #81755F",
"#	c #B19C87",
"$	c #4E3D29",
"%	c #DCC5B1",
"&	c #523A26",
"*	c #E0E0E0",
"=	c #565972",
"-	c #46465E",
";	c #716B6E",
">	c #5D585F",
",	c #555157",
"'	c #3A3A50",
")	c #A5948F",
"!	c #B59E95",
"~	c #86765E",
"{	c #4D3C28",
"]	c #F6AE9F",
"^	c #FFCBB0",
"/	c #5B4B35",
"(	c #C7B39A",
"_	c #857362",
":	c #E19B9B",
"<	c #6C6E85",
"[	c #C2B8D5",
"}	c #D8D0E0",
"|	c #86735E",
"1	c #4C3C29",
"2	c #5A4934",
"3	c #85745D",
"4	c #584934",
" ..............+ ..............@",
".##############$%##############&",
".##############$%##############&",
".##############$%##############&",
".##############$%##############&",
".##############$%##############&",
".############*******###########&",
".###########*==-----*##########&",
".##########*=;;;;;>>-*#########&",
".#########*=>>;;;;;>>-*########&",
".#########*->>>>;;;>>-*########&",
".########*->>>>>>;;>>,-*#######&",
".########*->>>>>>>>>,,'*#######&",
".########*->>>>>>>>,,,'*#######&",
".########*->>)!!!>,,,,'*#######&",
"~{{{{{{{{*-]^^^^^,,,,,'*{{{{{{{/",
"(%%%%%%%%*=^^^^^^),,,,-*%%%%%%%_",
".########*-^'^^^^^],,-*########&",
".########*':<^^^^]],,'*########&",
".#########*']]]^]]]:'*#########&",
".##########*---'''''*##########&",
".##########*'[-=='='*##########&",
".##########*'}-<<'='*##########&",
".##########*'-=^^-='*##########&",
".##########*'<=^]-='*##########&",
".###########*''--''*###########&",
".###########*'===='*###########&",
".############*'<<<'*###########&",
".#############*'''*############&",
".##############$%##############&",
".##############$%##############&",
"|1111111111111123111111111111114"};
