/* XPM */
static char * bob_right_xpm[] = {
"32 32 29 1",
" 	c #C8B299",
".	c #DEC7B3",
"+	c #87745C",
"@	c #81755F",
"#	c #B19C87",
"$	c #4D3C28",
"%	c #523A26",
"&	c #E0E0E0",
"*	c #46465E",
"=	c #565972",
"-	c #5D585F",
";	c #716B6E",
">	c #555157",
",	c #3A3A50",
"'	c #B59E95",
")	c #A5948F",
"!	c #86765E",
"~	c #FFCBB0",
"{	c #F6AE9F",
"]	c #5B4B35",
"^	c #857362",
"/	c #6C6E85",
"(	c #E19B9B",
"_	c #C2B8D5",
":	c #D8D0E0",
"<	c #86735E",
"[	c #5A4934",
"}	c #85745D",
"|	c #584934",
" ..............+ ..............@",
".##############$.##############%",
".##############$.##############%",
".##############$.##############%",
".##############$.##############%",
".##############$.##############%",
".###########&&&&&&&############%",
".##########&*****==&###########%",
".#########&*--;;;;;=&##########%",
".########&*--;;;;;--=&#########%",
".########&*--;;;----*&#########%",
".#######&*>--;;------*&########%",
".#######&,>>---------*&########%",
".#######&,>>>--------*&########%",
".#######&,>>>>-''')--*&########%",
"!$$$$$$$&,>>>>>~~~~~{*&$$$$$$$$]",
" .......&*>>>>)~~~~~~=&........^",
".########&*>>{~~~~~,~*&########%",
".########&,>>{{~~~~/(,&########%",
".#########&,({{{~{{{,&#########%",
".##########&,,,,,***&##########%",
".##########&,=,==*_,&##########%",
".##########&,=,//*:,&##########%",
".##########&,=*~~=*,&##########%",
".##########&,=*{~=/,&##########%",
".###########&,,**,,&###########%",
".###########&,====,&###########%",
".###########&,///,&############%",
".############&,,,&#############%",
".##############$.##############%",
".##############$.##############%",
"<$$$$$$$$$$$$$$[}$$$$$$$$$$$$$$|"};
