/* XPM */
static char * wall_xpm[] = {
"32 32 6 1",
" 	c #F39C6A",
".	c #8A380E",
"+	c #B95824",
"@	c #501202",
"#	c #5C1801",
"$	c #8B3809",
"       .               .        ",
"+++++++@ ++++++++++++++@ +++++++",
"+++++++@ ++++++++++++++@ +++++++",
"+++++++@ ++++++++++++++@ +++++++",
"+++++++@ ++++++++++++++@ +++++++",
"+++++++@ ++++++++++++++@ +++++++",
"+++++++@ ++++++++++++++@ +++++++",
"@@@@@@@#$@@@@@@@@@@@@@@#$@@@@@@@",
"               .               .",
" ++++++++++++++@ ++++++++++++++@",
" ++++++++++++++@ ++++++++++++++@",
" ++++++++++++++@ ++++++++++++++@",
" ++++++++++++++@ ++++++++++++++@",
" ++++++++++++++@ ++++++++++++++@",
" ++++++++++++++@ ++++++++++++++@",
".@@@@@@@@@@@@@@#.@@@@@@@@@@@@@@#",
"       .               .        ",
"+++++++@ ++++++++++++++@ +++++++",
"+++++++@ ++++++++++++++@ +++++++",
"+++++++@ ++++++++++++++@ +++++++",
"+++++++@ ++++++++++++++@ +++++++",
"+++++++@ ++++++++++++++@ +++++++",
"+++++++@ ++++++++++++++@ +++++++",
"@@@@@@@#$@@@@@@@@@@@@@@#$@@@@@@@",
"               .               .",
" ++++++++++++++@ ++++++++++++++@",
" ++++++++++++++@ ++++++++++++++@",
" ++++++++++++++@ ++++++++++++++@",
" ++++++++++++++@ ++++++++++++++@",
" ++++++++++++++@ ++++++++++++++@",
" ++++++++++++++@ ++++++++++++++@",
".@@@@@@@@@@@@@@#.@@@@@@@@@@@@@@#"};
